<?xml version="1.0" encoding="UTF-8" standalone="no"?><!DOCTYPE svg PUBLIC "-//W3C//DTD SVG 1.1//EN" "http://www.w3.org/Graphics/SVG/1.1/DTD/svg11.dtd"><svg width="100%" height="100%" viewBox="0 0 834 185" version="1.1" xmlns="http://www.w3.org/2000/svg" xmlns:xlink="http://www.w3.org/1999/xlink" xml:space="preserve" xmlns:serif="http://www.serif.com/" style="fill-rule:evenodd;clip-rule:evenodd;stroke-linejoin:round;stroke-miterlimit:2;"><rect id="Logo2" x="-0" y="0" width="833.333" height="184.729" style="fill:none;"/><g><path d="M37.883,165.584l0,14.959l-26.311,0c-2.517,-0 -4.93,-1 -6.71,-2.779c-1.78,-1.78 -2.779,-4.193 -2.779,-6.71l-0,-168.79l27.993,0c2.517,-0 4.93,1 6.71,2.779c1.78,1.78 2.779,4.193 2.779,6.71l0,53.24c3.045,-3.359 6.489,-6.169 10.332,-8.429c8.169,-4.805 17.7,-7.208 28.592,-7.208c12.174,0 23.106,2.723 32.797,8.169c9.691,5.446 17.379,13.135 23.066,23.066c5.686,9.931 8.53,21.704 8.53,35.319c0,13.455 -2.843,25.148 -8.53,35.079c-5.686,9.931 -13.375,17.66 -23.066,23.186c-9.691,5.526 -20.623,8.289 -32.797,8.289c-11.373,0 -21.144,-2.403 -29.313,-7.208c-4.296,-2.527 -8.06,-5.751 -11.293,-9.673Zm34.118,-13.873c6.247,0 11.813,-1.442 16.699,-4.325c4.885,-2.883 8.81,-7.008 11.773,-12.374c2.963,-5.366 4.445,-11.733 4.445,-19.101c0,-7.528 -1.482,-13.936 -4.445,-19.221c-2.963,-5.286 -6.888,-9.37 -11.773,-12.254c-4.885,-2.883 -10.452,-4.325 -16.699,-4.325c-6.247,0 -11.853,1.442 -16.819,4.325c-4.966,2.883 -8.89,6.968 -11.773,12.254c-2.883,5.286 -4.325,11.693 -4.325,19.221c0,7.368 1.442,13.735 4.325,19.101c2.883,5.366 6.808,9.491 11.773,12.374c4.966,2.883 10.572,4.325 16.819,4.325Z" style="fill:#f2f2f2;"/><path d="M203.669,68.236c3.532,-4.834 8.017,-8.765 13.455,-11.792c8.489,-4.725 18.821,-7.088 30.995,-7.088l0,34.599c-1.602,-0.16 -3.043,-0.28 -4.325,-0.36c-1.281,-0.08 -2.643,-0.12 -4.085,-0.12c-10.251,0 -18.541,2.923 -24.868,8.77c-6.327,5.847 -9.491,14.937 -9.491,27.27l0,51.539c-0,2.517 -1,4.93 -2.779,6.71c-1.78,1.78 -4.193,2.779 -6.71,2.779l-27.993,0l0,-129.264l35.8,0l-0,16.957Z" style="fill:#f2f2f2;"/><path d="M283.087,124.505l-23.292,55.203l35.575,0l4.202,-9.988c0.641,-1.522 0.65,-3.236 0.026,-4.764l-16.511,-40.452Z" style="fill:#f2f2f2;"/><path d="M363.368,179.708l40.958,0l-50.516,-123.725c-0.955,-2.34 -3.233,-3.87 -5.76,-3.87l-36.761,0l52.079,127.595Z" style="fill:#f2f2f2;"/><path d="M605.905,133.213c0.294,0.656 0.605,1.296 0.934,1.92c3.043,5.766 7.408,10.091 13.095,12.975c5.686,2.883 12.454,4.325 20.303,4.325c6.888,0 12.894,-1.041 18.02,-3.123c2.803,-1.139 5.509,-2.588 8.12,-4.349c3.857,-2.581 9.02,-1.969 12.167,1.443c5.928,6.33 14.071,15.16 14.071,15.16c-5.927,6.728 -13.375,11.893 -22.345,15.497c-8.97,3.604 -19.302,5.406 -30.995,5.406c-14.736,0 -27.671,-2.883 -38.803,-8.65c-11.132,-5.766 -19.742,-13.655 -25.829,-23.666c-6.087,-10.011 -9.13,-21.424 -9.13,-34.238c0,-12.975 3.003,-24.467 9.01,-34.479c6.007,-10.011 14.216,-17.86 24.628,-23.546c10.412,-5.686 22.265,-8.53 35.56,-8.53c12.174,0 23.306,2.563 33.397,7.689c10.091,5.126 18.18,12.574 24.267,22.345c6.087,9.771 9.13,21.544 9.13,35.319l-95.6,18.503Zm-3.606,-21.25l63.013,-12.09c-0.665,-2.327 -1.575,-4.509 -2.73,-6.547c-2.723,-4.805 -6.447,-8.61 -11.172,-11.413c-4.725,-2.803 -10.292,-4.205 -16.699,-4.205c-6.407,0 -12.053,1.402 -16.939,4.205c-4.885,2.803 -8.69,6.888 -11.413,12.254c-2.51,4.946 -3.863,10.878 -4.059,17.796Z" style="fill:#f2f2f2;"/><path d="M770.222,182.465c-11.052,0 -21.664,-1.321 -31.836,-3.964c-10.171,-2.643 -18.22,-5.967 -24.147,-9.971c-0,-0 3.763,-8.104 7.158,-15.417c2.791,-6.01 9.841,-8.729 15.944,-6.148c3.232,1.395 6.71,2.602 10.415,3.666c8.089,2.323 16.058,3.484 23.907,3.484c8.65,0 14.777,-1.041 18.381,-3.123c3.604,-2.082 5.406,-4.966 5.406,-8.65c0,-3.043 -1.402,-5.326 -4.205,-6.848c-2.803,-1.522 -6.527,-2.683 -11.172,-3.484c-4.645,-0.801 -9.731,-1.602 -15.257,-2.403c-5.526,-0.801 -11.092,-1.882 -16.699,-3.244c-5.606,-1.362 -10.732,-3.404 -15.377,-6.127c-4.645,-2.723 -8.369,-6.407 -11.172,-11.052c-2.803,-4.645 -4.205,-10.652 -4.205,-18.02c0,-8.169 2.363,-15.377 7.088,-21.624c4.725,-6.247 11.573,-11.172 20.543,-14.777c8.97,-3.604 19.702,-5.406 32.196,-5.406c8.81,0 17.78,0.961 26.91,2.883c9.13,1.922 16.739,4.725 22.826,8.409c0,-0 -3.829,8.174 -7.248,15.472c-2.725,5.815 -9.465,8.555 -15.475,6.29c-2.853,-1.172 -5.739,-2.038 -8.633,-2.661c-6.327,-1.362 -12.454,-2.042 -18.381,-2.042c-8.329,0 -14.416,1.121 -18.26,3.364c-3.844,2.243 -5.766,5.126 -5.766,8.65c0,3.204 1.402,5.606 4.205,7.208c2.803,1.602 6.527,2.883 11.172,3.844c4.645,0.961 9.731,1.802 15.257,2.523c5.526,0.721 11.092,1.802 16.699,3.244c5.606,1.442 10.692,3.484 15.257,6.127c4.565,2.643 8.289,6.247 11.172,10.812c2.883,4.565 4.325,10.532 4.325,17.9c0,8.009 -2.403,15.097 -7.208,21.264c-4.805,6.167 -11.733,11.012 -20.783,14.536c-9.05,3.524 -20.062,5.286 -33.037,5.286Z" style="fill:#f2f2f2;"/><path d="M487.973,138.724c0,0 23.954,-56.693 33.251,-78.696c2.199,-5.204 7.299,-8.585 12.948,-8.585c10.559,0 26.319,0 26.319,0l-54.051,128.294l-38.393,0l-53.909,-128.294l35.396,0c1.787,0 3.396,1.083 4.069,2.738c6.016,14.797 34.371,84.544 34.371,84.544Z" style="fill:#f2f2f2;"/></g></svg>