<?xml version="1.0" encoding="UTF-8" standalone="no"?>
<!DOCTYPE svg PUBLIC "-//W3C//DTD SVG 1.1//EN" "http://www.w3.org/Graphics/SVG/1.1/DTD/svg11.dtd">
<svg width="100%" height="100%" viewBox="0 0 512 512" version="1.1" xmlns="http://www.w3.org/2000/svg" xmlns:xlink="http://www.w3.org/1999/xlink" xml:space="preserve" xmlns:serif="http://www.serif.com/" style="fill-rule:evenodd;clip-rule:evenodd;stroke-linejoin:round;stroke-miterlimit:2;">
    <g transform="matrix(1,0,0,1,-3444.81,-8434.96)">
        <g id="Icono-White-BravesLab" serif:id="Icono White BravesLab" transform="matrix(0.559602,0,0,1.27717,-341.843,176.524)">
            <rect x="6766.68" y="6466.21" width="914.935" height="400.887" style="fill:none;"/>
            <clipPath id="_clip1">
                <rect x="6766.68" y="6466.21" width="914.935" height="400.887"/>
            </clipPath>
            <g clip-path="url(#_clip1)">
                <g transform="matrix(1.02473,0,0,1.02473,-5.01635,-137.294)">
                    <g transform="matrix(-5.49066,2.94623e-16,-6.72412e-16,-2.40578,7248.08,6467.04)">
                        <path d="M0,-143.557L-46.082,-143.557L10.753,-4.354C11.828,-1.721 14.39,0 17.234,0L58.594,0L0,-143.557Z" style="fill:rgb(242,242,242);fill-rule:nonzero;"/>
                    </g>
                    <g transform="matrix(-5.49066,2.94623e-16,-6.72412e-16,-2.40578,6752.14,6812.4)">
                        <path d="M0,62.109L26.206,0L-13.819,0L-18.547,11.237C-19.268,12.949 -19.278,14.878 -18.576,16.597L0,62.109Z" style="fill:rgb(242,242,242);fill-rule:nonzero;"/>
                    </g>
                </g>
            </g>
        </g>
    </g>
</svg>
